<svg width="55" height="48" viewBox="0 0 55 48" fill="none" xmlns="http://www.w3.org/2000/svg">
<path d="M35.5208 9.60417C34.2604 9.60417 33.1814 9.15538 32.2839 8.25781C31.3863 7.36024 30.9375 6.28125 30.9375 5.02083C30.9375 3.76042 31.3863 2.68142 32.2839 1.78385C33.1814 0.886285 34.2604 0.4375 35.5208 0.4375C36.7812 0.4375 37.8602 0.886285 38.7578 1.78385C39.6554 2.68142 40.1042 3.76042 40.1042 5.02083C40.1042 6.28125 39.6554 7.36024 38.7578 8.25781C37.8602 9.15538 36.7812 9.60417 35.5208 9.60417ZM24.75 21.0625L28.5312 25.0156C28.9514 25.4358 29.2665 25.9132 29.4766 26.4479C29.6866 26.9826 29.7917 27.5556 29.7917 28.1667V38.25C29.7917 38.8993 29.5721 39.4436 29.1328 39.8828C28.6936 40.322 28.1493 40.5417 27.5 40.5417C26.8507 40.5417 26.3064 40.322 25.8672 39.8828C25.428 39.4436 25.2083 38.8993 25.2083 38.25V29.0833L17.875 22.6667C17.3403 22.2083 16.9774 21.7309 16.7865 21.2344C16.5955 20.7378 16.5 20.1458 16.5 19.4583C16.5 18.7708 16.605 18.1884 16.8151 17.7109C17.0252 17.2335 17.3785 16.7465 17.875 16.25L24.2917 9.83333C24.7882 9.33681 25.3134 8.98351 25.8672 8.77344C26.421 8.56337 27.0417 8.45833 27.7292 8.45833C28.4167 8.45833 29.0373 8.56337 29.5911 8.77344C30.145 8.98351 30.6701 9.33681 31.1667 9.83333L35.5208 14.1875C36.3229 14.9896 37.2205 15.6675 38.2135 16.2214C39.2066 16.7752 40.3142 17.1667 41.5365 17.3958C42.1858 17.5104 42.7205 17.7969 43.1406 18.2552C43.5608 18.7135 43.7708 19.2674 43.7708 19.9167C43.7708 20.566 43.5417 21.1007 43.0833 21.5208C42.625 21.941 42.0712 22.1128 41.4219 22.0365C39.5503 21.7691 37.8316 21.2344 36.2656 20.4323C34.6997 19.6302 33.3056 18.6181 32.0833 17.3958L30.25 15.5625L24.75 21.0625ZM11.4583 24.5C14.7049 24.5 17.4262 25.5981 19.6224 27.7943C21.8186 29.9905 22.9167 32.7118 22.9167 35.9583C22.9167 39.2049 21.8186 41.9262 19.6224 44.1224C17.4262 46.3186 14.7049 47.4167 11.4583 47.4167C8.21181 47.4167 5.49045 46.3186 3.29427 44.1224C1.09809 41.9262 0 39.2049 0 35.9583C0 32.7118 1.09809 29.9905 3.29427 27.7943C5.49045 25.5981 8.21181 24.5 11.4583 24.5ZM11.4583 43.9792C13.6354 43.9792 15.5165 43.1866 17.1016 41.6016C18.6866 40.0165 19.4792 38.1354 19.4792 35.9583C19.4792 33.7812 18.6866 31.9002 17.1016 30.3151C15.5165 28.73 13.6354 27.9375 11.4583 27.9375C9.28125 27.9375 7.40017 28.73 5.8151 30.3151C4.23003 31.9002 3.4375 33.7812 3.4375 35.9583C3.4375 38.1354 4.23003 40.0165 5.8151 41.6016C7.40017 43.1866 9.28125 43.9792 11.4583 43.9792ZM43.5417 24.5C46.7882 24.5 49.5095 25.5981 51.7057 27.7943C53.9019 29.9905 55 32.7118 55 35.9583C55 39.2049 53.9019 41.9262 51.7057 44.1224C49.5095 46.3186 46.7882 47.4167 43.5417 47.4167C40.2951 47.4167 37.5738 46.3186 35.3776 44.1224C33.1814 41.9262 32.0833 39.2049 32.0833 35.9583C32.0833 32.7118 33.1814 29.9905 35.3776 27.7943C37.5738 25.5981 40.2951 24.5 43.5417 24.5ZM43.5417 43.9792C45.7188 43.9792 47.5998 43.1866 49.1849 41.6016C50.77 40.0165 51.5625 38.1354 51.5625 35.9583C51.5625 33.7812 50.77 31.9002 49.1849 30.3151C47.5998 28.73 45.7188 27.9375 43.5417 27.9375C41.3646 27.9375 39.4835 28.73 37.8984 30.3151C36.3134 31.9002 35.5208 33.7812 35.5208 35.9583C35.5208 38.1354 36.3134 40.0165 37.8984 41.6016C39.4835 43.1866 41.3646 43.9792 43.5417 43.9792Z" fill="#781803"/>
</svg>
