<svg width="55" height="55" viewBox="0 0 55 55" fill="none" xmlns="http://www.w3.org/2000/svg">
<path d="M13.75 43.5417V44.6875C13.75 45.6424 13.4158 46.454 12.7474 47.1224C12.079 47.7908 11.2674 48.125 10.3125 48.125C9.35764 48.125 8.54601 47.7908 7.8776 47.1224C7.2092 46.454 6.875 45.6424 6.875 44.6875V28.3021C6.875 28.0347 6.8941 27.7674 6.93229 27.5C6.97049 27.2326 7.02778 26.9844 7.10417 26.7552L11.401 14.5521C11.7066 13.6354 12.2604 12.8906 13.0625 12.3177C13.8646 11.7448 14.7622 11.4583 15.7552 11.4583H39.2448C40.2378 11.4583 41.1354 11.7448 41.9375 12.3177C42.7396 12.8906 43.2934 13.6354 43.599 14.5521L47.8958 26.7552C47.9722 26.9844 48.0295 27.2326 48.0677 27.5C48.1059 27.7674 48.125 28.0347 48.125 28.3021V44.6875C48.125 45.6424 47.7908 46.454 47.1224 47.1224C46.454 47.7908 45.6424 48.125 44.6875 48.125C43.7326 48.125 42.921 47.7908 42.2526 47.1224C41.5842 46.454 41.25 45.6424 41.25 44.6875V43.5417H13.75ZM13.2917 22.9167H41.7083L39.3021 16.0417H15.6979L13.2917 22.9167ZM17.1875 36.6667C18.1424 36.6667 18.954 36.3325 19.6224 35.6641C20.2908 34.9957 20.625 34.184 20.625 33.2292C20.625 32.2743 20.2908 31.4627 19.6224 30.7943C18.954 30.1259 18.1424 29.7917 17.1875 29.7917C16.2326 29.7917 15.421 30.1259 14.7526 30.7943C14.0842 31.4627 13.75 32.2743 13.75 33.2292C13.75 34.184 14.0842 34.9957 14.7526 35.6641C15.421 36.3325 16.2326 36.6667 17.1875 36.6667ZM37.8125 36.6667C38.7674 36.6667 39.579 36.3325 40.2474 35.6641C40.9158 34.9957 41.25 34.184 41.25 33.2292C41.25 32.2743 40.9158 31.4627 40.2474 30.7943C39.579 30.1259 38.7674 29.7917 37.8125 29.7917C36.8576 29.7917 36.046 30.1259 35.3776 30.7943C34.7092 31.4627 34.375 32.2743 34.375 33.2292C34.375 34.184 34.7092 34.9957 35.3776 35.6641C36.046 36.3325 36.8576 36.6667 37.8125 36.6667Z" fill="#781803"/>
</svg>
