<svg width="55" height="55" viewBox="0 0 55 55" fill="none" xmlns="http://www.w3.org/2000/svg">
<path d="M24.9792 34.1458L21.2552 50.875C21.1406 51.4097 20.8637 51.849 20.4245 52.1927C19.9852 52.5365 19.4792 52.7083 18.9062 52.7083C18.1424 52.7083 17.5312 52.4219 17.0729 51.849C16.6146 51.276 16.4618 50.6267 16.6146 49.901L22.4583 20.3958L18.3333 22V27.5C18.3333 28.1493 18.1137 28.6936 17.6745 29.1328C17.2352 29.572 16.691 29.7917 16.0417 29.7917C15.3924 29.7917 14.8481 29.572 14.4089 29.1328C13.9696 28.6936 13.75 28.1493 13.75 27.5V20.5104C13.75 20.0521 13.8741 19.6415 14.1224 19.2786C14.3707 18.9158 14.7049 18.6389 15.125 18.4479L25.3229 14.0938C25.8576 13.8646 26.421 13.7309 27.013 13.6927C27.605 13.6545 28.1684 13.7309 28.7031 13.9219C29.2378 14.1128 29.7439 14.3802 30.2214 14.724C30.6988 15.0677 31.0903 15.5069 31.3958 16.0417L33.6875 19.7083C34.184 20.4722 34.7665 21.1979 35.4349 21.8854C36.1033 22.5729 36.8576 23.1649 37.6979 23.6615C38.2326 23.967 38.8247 24.2439 39.474 24.4922C40.1233 24.7405 40.7726 24.9219 41.4219 25.0365C42.033 25.151 42.5391 25.4279 42.9401 25.8672C43.3411 26.3064 43.5417 26.8507 43.5417 27.5C43.5417 28.1493 43.3125 28.684 42.8542 29.1042C42.3958 29.5243 41.842 29.6962 41.1927 29.6198C39.0538 29.3142 37.1345 28.6458 35.4349 27.6146C33.7352 26.5833 32.2552 25.342 30.9948 23.8906L29.5625 30.9375L33.6875 34.8333C33.9167 35.0625 34.0885 35.3203 34.2031 35.6068C34.3177 35.8932 34.375 36.1892 34.375 36.4948V50.4167C34.375 51.066 34.1554 51.6102 33.7161 52.0495C33.2769 52.4887 32.7326 52.7083 32.0833 52.7083C31.434 52.7083 30.8898 52.4887 30.4505 52.0495C30.0113 51.6102 29.7917 51.066 29.7917 50.4167V37.8125L24.9792 34.1458ZM30.9375 12.6042C29.6771 12.6042 28.5981 12.1554 27.7005 11.2578C26.803 10.3602 26.3542 9.28125 26.3542 8.02083C26.3542 6.76042 26.803 5.68142 27.7005 4.78385C28.5981 3.88628 29.6771 3.4375 30.9375 3.4375C32.1979 3.4375 33.2769 3.88628 34.1745 4.78385C35.072 5.68142 35.5208 6.76042 35.5208 8.02083C35.5208 9.28125 35.072 10.3602 34.1745 11.2578C33.2769 12.1554 32.1979 12.6042 30.9375 12.6042Z" fill="#781803"/>
</svg>
