<svg width="45" height="42" viewBox="0 0 45 42" fill="none" xmlns="http://www.w3.org/2000/svg">
<path d="M22.5 3.9375C18.8843 3.9375 15.3498 4.9382 12.3435 6.81305C9.33715 8.6879 6.994 11.3527 5.61034 14.4705C4.22667 17.5882 3.86464 21.0189 4.57003 24.3287C5.27541 27.6385 7.01653 30.6788 9.57321 33.065C12.1299 35.4512 15.3873 37.0763 18.9335 37.7346C22.4797 38.393 26.1555 38.0551 29.4959 36.7637C32.8364 35.4723 35.6915 33.2853 37.7003 30.4794C39.7091 27.6735 40.7813 24.3746 40.7813 21C40.7761 16.4762 38.8484 12.1391 35.4212 8.94027C31.9939 5.74146 27.3469 3.94228 22.5 3.9375ZM22.5 35.4375C19.4406 35.4375 16.4499 34.5908 13.906 33.0043C11.3622 31.4179 9.37954 29.1631 8.20875 26.525C7.03795 23.8869 6.73162 20.984 7.32849 18.1834C7.92535 15.3828 9.39861 12.8103 11.562 10.7911C13.7253 8.77203 16.4816 7.39699 19.4822 6.83991C22.4828 6.28284 25.5931 6.56875 28.4196 7.66149C31.2462 8.75423 33.6621 10.6047 35.3618 12.979C37.0615 15.3532 37.9688 18.1445 37.9688 21C37.9641 24.8277 36.3329 28.4974 33.4329 31.2041C30.533 33.9107 26.6011 35.4332 22.5 35.4375ZM30.3082 11.9503L19.0582 17.2003C18.7862 17.3278 18.5655 17.5338 18.4289 17.7877L12.8039 28.2877C12.6966 28.4878 12.6459 28.7103 12.6567 28.9339C12.6674 29.1575 12.7393 29.3749 12.8654 29.5652C12.9915 29.7556 13.1677 29.9127 13.3773 30.0217C13.5868 30.1306 13.8227 30.1877 14.0625 30.1875C14.2808 30.1872 14.4961 30.14 14.6918 30.0497L25.9418 24.7997C26.2138 24.6722 26.4345 24.4662 26.5711 24.2123L32.1961 13.7123C32.3288 13.4658 32.3749 13.1865 32.3278 12.9141C32.2808 12.6417 32.1429 12.3901 31.9339 12.195C31.7249 11.9999 31.4553 11.8713 31.1634 11.8274C30.8716 11.7834 30.5724 11.8264 30.3082 11.9503ZM24.2578 22.6406L17.2072 25.9399L20.7422 19.3594L27.7998 16.0666L24.2578 22.6406Z" fill="black"/>
</svg>
